<svg xmlns="http://www.w3.org/2000/svg" viewBox="0 0 512 512" enable-background="0 0 512 512"><path fill="#2090B4" d="M278.8 348.3c4.8-4 8-7.4 17.9-7.4 10 0 11.7 3.7 13.7 7.4s2.3 4.3 4.3 3.1c2.3-1.1 3.4-2.8 2.3-5.7-1.1-2.8-3.1-8-6.5-10.2-3.4-2.3-8.3-2.6-12.8-2.6s-7.1-.3-12 1.7c-4.8 2-10 6.5-13.1 9.4-3.1 2.8-3.7 5.1-2 7.4 1.7 2.3 3.4.9 8.2-3.1zm40.7 15.9c-5.7 4.3-18.5 9.4-36.7 9.4-18.2 0-26.8-3.7-32.4-8.3-.9-.6-.6-.6-2.3-.6-1.7 0-2.8.9-4.3 2-1.4 1.1-2 4 0 6 12.5 11.4 33.3 10.5 48.7 9.1 15.4-1.4 28.5-10.5 29.9-12 2-2 1.4-3.7 1.1-4.8-.3-1.1-1.4-2.8-4-.8zm-89-93.9c-26.2.3-47 21.1-47.2 43.3-.3 12.5 4 21.6 12.5 27.6 5.7 3.7 10.8 6.3 27.9 6.3 28.2 0 64-35 80.5-34.4 13.1.6 33.6 32.4 43.8 33.3 8 .6 12.2-3.1 19.1-13.1 6.8-10 9.7-25.9 9.7-34.7s-4-23.6-18.2-23.6c-13.4 0-40.7 27.9-54.9 28.2-16.9.1-39.9-33.2-73.2-32.9zM256.4 50c-113.8 0-206 92.2-206 206s92.2 206 206 206 206-92.2 206-206-92.2-206-206-206zm1.2 346.7c-68.6 0-130.3-54.1-130.3-127.5s57.2-107.6 67.7-113c12.5-6.8 21.6-10.2 36.1-21.6 6.8-5.7 12.8-13.7 14.8-33.3 10.2 12.2 22.5 26.5 31.3 32.4 14.2 9.4 28.5 13.1 43.5 22.5 9.1 5.7 64.9 39.8 64.9 115.3s-59.5 125.2-128 125.2z"/></svg>