<svg xmlns="http://www.w3.org/2000/svg" viewBox="0 0 512 512" enable-background="new 0 0 512 512"><path fill="#2090B4" d="M256.417 50c-113.77 0-206 92.23-206 206s92.23 206 206 206 206-92.23 206-206-92.23-206-206-206zm-54.96 305.592h-45.23V209.47h45.23V355.59zm-22.83-165.26c-14.772 0-26.747-12.07-26.747-26.962s11.975-26.963 26.746-26.963c14.77 0 26.745 12.072 26.745 26.963s-11.974 26.963-26.744 26.963zm192.326 165.26h-45.01V278.89s-7.99-32.782-24.626-32.782c-18.103 0-27.562 12.23-27.562 32.78v76.704h-43.38V209.47h43.38v19.678s13.047-24.137 44.032-24.137c30.986 0 53.165 18.92 53.165 58.06v92.522z"/></svg>